<mxfile host="app.diagrams.net" modified="2021-05-10T22:32:13.213Z" agent="5.0 (Windows NT 10.0; Win64; x64) AppleWebKit/537.36 (KHTML, like Gecko) Chrome/90.0.4430.212 Safari/537.36" etag="eb2TFeOryNYKLSafYUiZ" version="14.6.9" type="github">
  <diagram id="6G1C6MWFQJ_2crtNaM6y" name="Page-1">
    <mxGraphModel dx="725" dy="853" grid="1" gridSize="10" guides="1" tooltips="1" connect="1" arrows="1" fold="1" page="1" pageScale="1" pageWidth="850" pageHeight="1100" math="0" shadow="0">
      <root>
        <mxCell id="0" />
        <mxCell id="1" parent="0" />
        <object label="" id="Zq3CxsaV_SqM0A4h9t8K-1">
          <mxCell style="rounded=0;whiteSpace=wrap;html=1;" parent="1" vertex="1">
            <mxGeometry x="60" y="150" width="580" height="1080" as="geometry" />
          </mxCell>
        </object>
        <mxCell id="oN7nplx9V-jybHz6eWnV-1" value="" style="rounded=0;whiteSpace=wrap;html=1;" parent="1" vertex="1">
          <mxGeometry x="80" y="160" width="530" height="60" as="geometry" />
        </mxCell>
        <mxCell id="oN7nplx9V-jybHz6eWnV-2" value="" style="rounded=0;whiteSpace=wrap;html=1;" parent="1" vertex="1">
          <mxGeometry x="80" y="240" width="530" height="250" as="geometry" />
        </mxCell>
        <mxCell id="oN7nplx9V-jybHz6eWnV-4" value="" style="rounded=0;whiteSpace=wrap;html=1;" parent="1" vertex="1">
          <mxGeometry x="80" y="510" width="530" height="220" as="geometry" />
        </mxCell>
        <mxCell id="Gv7f0trkVqUSOzonPkmo-1" value="" style="ellipse;whiteSpace=wrap;html=1;aspect=fixed;" vertex="1" parent="1">
          <mxGeometry x="140" y="840" width="160" height="160" as="geometry" />
        </mxCell>
        <mxCell id="Gv7f0trkVqUSOzonPkmo-2" value="" style="ellipse;whiteSpace=wrap;html=1;aspect=fixed;" vertex="1" parent="1">
          <mxGeometry x="400" y="840" width="160" height="160" as="geometry" />
        </mxCell>
        <mxCell id="Gv7f0trkVqUSOzonPkmo-3" value="" style="rounded=1;whiteSpace=wrap;html=1;" vertex="1" parent="1">
          <mxGeometry x="120" y="1050" width="460" height="140" as="geometry" />
        </mxCell>
      </root>
    </mxGraphModel>
  </diagram>
</mxfile>
